# xmcd
#
# Track frame offsets:
#	150
#	20265
#	45180
#	72199
#	86343
#	103853
#	124613
#	144517
#	171908
#	198898
#
# Disc length: 3011
#
# Revision: 1
# Processed by: cddbd v1.5.1PL0 Copyright (c) Steve Scherf et al.
# Submitted via: CDex 1.50beta9
# Normalized: r0:TDELIM( - )
#
DISCID=790bc10a
DTITLE=Various Artist - NAV February 2001 Sampler
DYEAR=2001
DGENRE=New Age
TTITLE0=Kohala - Juliette
TTITLE1=Anugama - Sweetness of the Earth
TTITLE2=Woman in a Forest - Rainy Night in Manhattan
TTITLE3=Donald Walters - Love is Ever-New Discovery
TTITLE4=Nikkos - Angels Dreaming
TTITLE5=Nomad - With You
TTITLE6=Blackmore's Night - Under a Violet Moon
TTITLE7=Gerald Jay Markoe - 'Celestial Mozart' Selections
TTITLE8=James Asher - Tammy Tama
TTITLE9=Brian Melick - 'Percussive Voices' Highlights
EXTD=YEAR: 2001
EXTT0=
EXTT1=
EXTT2=
EXTT3=
EXTT4=
EXTT5=
EXTT6=
EXTT7=
EXTT8=
EXTT9=
PLAYORDER=
